<svg width="1584" height="396" viewBox="0 0 1584 396" fill="none" xmlns="http://www.w3.org/2000/svg">
<path d="M293.335 309.106L337.045 57.4835L413.251 58.0586L392.833 172.511H412.1L421.878 171.936L426.766 171.361L431.08 169.923L433.956 168.197L435.681 166.184L437.694 163.021L439.132 159.858L440.857 152.381L443.158 140.878L444.021 133.977L443.445 130.813L442.008 128.225L439.707 125.925L437.406 124.487L432.518 123.049L422.74 122.474L411.813 122.186L419.29 58.0586L457.824 58.3462H465.588H469.614L477.378 59.2089L486.868 61.797L492.332 63.81L497.508 66.1106L504.697 70.7116L508.436 73.5873L514.475 79.9138L516.775 83.0771L518.788 86.2403L520.801 89.6912L522.239 93.4295L524.827 101.194L525.978 109.533L526.553 118.16L526.265 126.787L525.115 140.016L522.814 152.381L519.651 164.459L515.337 176.249L511.312 186.314L505.848 195.804L500.096 204.718L493.482 212.77L484.568 220.247L474.79 225.711L500.959 309.393H416.989L398.297 234.626H382.193L369.253 309.393L293.335 309.106Z" fill="#1E2877"/>
<path d="M401.173 125.35L412.388 58.0586H421.59L420.152 122.186H401.748L401.173 125.35Z" fill="#1E2877"/>
<path d="M416.989 309.393L398.585 234.626H382.193L369.253 309.393L293.047 309.106L337.045 57.7711L469.327 58.3462C469.327 58.3462 526.265 60.3592 526.553 117.298C526.804 167.041 504.449 199.006 498.795 206.291C497.957 207.37 497.107 208.433 496.229 209.48C494.567 211.462 491.373 214.976 487.156 218.234C480.829 223.123 474.79 225.711 474.79 225.711L501.247 309.393H416.989Z" stroke="#1E2877"/>
<path d="M458.19 315.72H392.147H147.931H128.479L113.525 333.549L93.683 357.417L553.691 357.705H558.443H559.393L560.581 357.632L561.768 357.56C562.401 357.464 563.04 357.415 563.68 357.416L565.342 357.416C568.743 357.417 572.125 356.916 575.38 355.93L579.961 354.542L582.7 352.856C583.364 352.448 583.978 351.962 584.53 351.411L585.137 350.803L586 349.308V348.439V346.702V346.123C586 345.745 585.89 345.375 585.682 345.06L585.525 344.82L584.275 342.464L581.974 340.163L575.072 335.85L567.308 334.124L562.707 332.974L554.08 330.673L544.015 328.085L535.388 325.21L533.087 324.634L527.624 322.046L515.546 317.158L511.232 316.007L506.631 315.72H475.286H466.659H461.516H458.19Z" fill="white"/>
<path d="M585.792 349.94V346.202L103.827 345.339L93.683 357.417H564.799L569.688 357.417L571.701 357.13L576.59 355.692L580.04 354.542L582.629 353.104L584.642 351.666L585.425 350.803L585.792 349.94Z" fill="#1E2877"/>
<path d="M522.616 322.781L514.683 316.87L530.098 323.443L537.976 326.36L546.028 328.66L554.368 330.673L543.645 330.235C540.097 330.09 536.588 329.445 533.22 328.32C529.414 327.049 525.834 325.179 522.616 322.781Z" fill="black" stroke="black" stroke-width="0.5"/>
<g filter="url(#filter0_d_2_2)">
<path d="M508.483 315.72H468.511H128.479L93.683 357.417H566.284H569.16H569.735L570.454 357.345L570.583 357.332C570.975 357.293 571.365 357.225 571.748 357.13L572.323 356.986L573.511 356.638L575.236 356.063L575.486 355.979L576.349 355.692L577.212 355.404L577.643 355.261L578.506 354.973L579.656 354.542L580.375 354.254L581.525 353.679L582.244 353.248L582.963 352.816L583.538 352.385L584.113 351.953L584.401 351.666L584.688 351.378L584.976 351.091C585.167 350.9 585.339 350.69 585.489 350.465L585.551 350.372L585.625 350.187C585.766 349.834 585.839 349.458 585.839 349.078V348.215V346.49V345.915C585.839 345.535 585.766 345.158 585.625 344.805L585.551 344.62C585.36 344.142 585.13 343.68 584.865 343.238L584.401 342.464C583.636 341.508 582.768 340.64 581.813 339.876L580.662 339.013L579.225 338.15L578.218 337.575L577.212 337L576.061 336.425L575.486 336.137C575.103 335.946 574.707 335.782 574.301 335.646L574.048 335.562L572.898 335.275L566.859 333.837L559.957 332.111L553.919 330.673L547.017 328.948L542.128 327.51L537.527 326.072L533.214 324.634L525.449 321.184L515.672 317.158L514.606 316.758C513.784 316.45 512.939 316.209 512.079 316.036C511.026 315.826 509.955 315.72 508.881 315.72H508.483Z" stroke="#1E2877" shape-rendering="crispEdges"/>
</g>
<rect x="501.869" y="327.223" width="9.20219" height="10.3525" rx="4" fill="#1E2877"/>
<rect x="488.065" y="327.223" width="9.20219" height="10.3525" rx="4" fill="#1E2877"/>
<rect x="461.195" y="327.223" width="23.0055" height="10.3525" rx="4" fill="#1E2877"/>
<rect x="461.195" y="327.223" width="9.20219" height="10.3525" rx="4" fill="#1E2877"/>
<rect x="433.589" y="327.223" width="23.0055" height="10.3525" rx="4" fill="#1E2877"/>
<rect x="433.589" y="327.223" width="9.20219" height="10.3525" rx="4" fill="#1E2877"/>
<rect x="405.982" y="327.223" width="9.20219" height="10.3525" rx="4" fill="#1E2877"/>
<rect x="392.179" y="327.223" width="9.20219" height="10.3525" rx="4" fill="#1E2877"/>
<rect x="364.572" y="327.223" width="23.0055" height="10.3525" rx="4" fill="#1E2877"/>
<rect x="364.572" y="327.223" width="9.20219" height="10.3525" rx="4" fill="#1E2877"/>
<rect x="350.769" y="327.223" width="9.20219" height="10.3525" rx="4" fill="#1E2877"/>
<rect x="323.163" y="327.223" width="9.20219" height="10.3525" rx="4" fill="#1E2877"/>
<rect x="309.359" y="327.223" width="9.20219" height="10.3525" rx="4" fill="#1E2877"/>
<rect x="267.949" y="327.223" width="23.0055" height="10.3525" rx="4" fill="#1E2877"/>
<rect x="267.949" y="327.223" width="9.20219" height="10.3525" rx="4" fill="#1E2877"/>
<rect x="254.146" y="327.223" width="9.20219" height="10.3525" rx="4" fill="#1E2877"/>
<rect x="226.54" y="327.223" width="9.20219" height="10.3525" rx="4" fill="#1E2877"/>
<rect x="198.933" y="327.223" width="23.0055" height="10.3525" rx="4" fill="#1E2877"/>
<rect x="198.933" y="327.223" width="9.20219" height="10.3525" rx="4" fill="#1E2877"/>
<rect x="185.13" y="327.223" width="9.20219" height="10.3525" rx="4" fill="#1E2877"/>
<path d="M261.157 78.8436L218.812 129.524L62.6256 316.87L52.5608 328.948L51.9856 330.673L53.711 341.889L54.5737 345.052L56.2991 349.078L57.737 352.241L60.0375 355.404L64.0635 357.417L87.3565 357.705L88.7944 356.555L323.45 70.424L325.463 67.5483L325.751 64.3851L325.751 61.5426L325.751 55.758L324.888 50.0066L323.45 44.5429L322.012 41.092L319.137 38.2163L315.686 36.4909L313.098 35.9158L296.994 35.6282L272.119 65.7244L266.587 72.3447L263.29 76.2913L261.157 78.8436Z" fill="white"/>
<path d="M87.9317 357.417L324.392 69.2738L325.176 67.5483L325.751 65.7269L325.751 61.2217L325.751 56.4503L325.255 51.7322L69.8941 357.705L87.9317 357.417Z" fill="#1E2877"/>
<g filter="url(#filter1_d_2_2)">
<path d="M293.404 40.2499L267.774 70.9239L53.3727 327.861C52.4877 328.922 52.0809 330.301 52.2488 331.672L53.1909 339.366C53.5353 342.179 54.3451 344.914 55.5872 347.46L58.0693 352.548C58.9718 354.399 60.4698 355.892 62.3228 356.788C63.5697 357.392 64.9368 357.705 66.3219 357.705L85.5296 357.705C87.0275 357.705 88.4465 357.033 89.3962 355.875L324.076 69.6263C324.424 69.2009 324.725 68.7379 324.971 68.2459C325.484 67.2199 325.751 66.0884 325.751 64.9412L325.751 58.2433C325.751 56.2068 325.577 54.174 325.231 52.1671L324.596 48.4866C324.408 47.3936 324.117 46.3208 323.727 45.2822L323.062 43.5084C322.193 41.1895 320.616 39.2027 318.555 37.8289C316.681 36.5796 314.489 35.8922 312.238 35.8478L302.458 35.6548L296.979 35.6548L293.404 40.2499Z" stroke="#1E2877" shape-rendering="crispEdges"/>
</g>
<rect x="297.99" y="52.7007" width="9.20219" height="10.3525" rx="4" transform="rotate(-50.12 297.99 52.7007)" fill="#1E2877"/>
<rect x="289.139" y="63.2932" width="9.20219" height="10.3525" rx="4" transform="rotate(-50.12 289.139 63.2932)" fill="#1E2877"/>
<rect x="280.658" y="73.4443" width="9.20219" height="10.3525" rx="4" transform="rotate(-50.12 280.658 73.4443)" fill="#1E2877"/>
<rect x="271.911" y="83.9129" width="9.20219" height="10.3525" rx="4" transform="rotate(-50.12 271.911 83.9129)" fill="#1E2877"/>
<rect x="254.21" y="105.098" width="9.20219" height="10.3525" rx="4" transform="rotate(-50.12 254.21 105.098)" fill="#1E2877"/>
<rect x="245.36" y="115.69" width="9.20219" height="10.3525" rx="4" transform="rotate(-50.12 245.36 115.69)" fill="#1E2877"/>
<rect x="227.659" y="136.875" width="9.20219" height="10.3525" rx="4" transform="rotate(-50.12 227.659 136.875)" fill="#1E2877"/>
<rect x="218.808" y="147.468" width="9.20219" height="10.3525" rx="4" transform="rotate(-50.12 218.808 147.468)" fill="#1E2877"/>
<rect x="209.958" y="158.06" width="9.20219" height="10.3525" rx="4" transform="rotate(-50.12 209.958 158.06)" fill="#1E2877"/>
<rect x="201.108" y="168.653" width="9.20219" height="10.3525" rx="4" transform="rotate(-50.12 201.108 168.653)" fill="#1E2877"/>
<rect x="183.407" y="189.838" width="9.20219" height="10.3525" rx="4" transform="rotate(-50.12 183.407 189.838)" fill="#1E2877"/>
<rect x="174.556" y="200.43" width="9.20219" height="10.3525" rx="4" transform="rotate(-50.12 174.556 200.43)" fill="#1E2877"/>
<rect x="156.856" y="221.615" width="9.20219" height="10.3525" rx="4" transform="rotate(-50.12 156.856 221.615)" fill="#1E2877"/>
<rect x="148.005" y="232.208" width="23.0036" height="10.3525" rx="4" transform="rotate(-50.12 148.005 232.208)" fill="#1E2877"/>
<rect x="139.155" y="242.8" width="9.20219" height="10.3525" rx="4" transform="rotate(-50.12 139.155 242.8)" fill="#1E2877"/>
<rect x="130.304" y="253.393" width="23.0054" height="10.3525" rx="4" transform="rotate(-50.12 130.304 253.393)" fill="#1E2877"/>
<rect x="121.454" y="263.985" width="9.20219" height="10.3525" rx="4" transform="rotate(-50.12 121.454 263.985)" fill="#1E2877"/>
<rect x="112.604" y="274.578" width="9.20219" height="10.3525" rx="4" transform="rotate(-50.12 112.604 274.578)" fill="#1E2877"/>
<rect x="94.9026" y="295.763" width="9.20219" height="10.3525" rx="4" transform="rotate(-50.12 94.9026 295.763)" fill="#1E2877"/>
<rect x="77.2018" y="316.948" width="9.20219" height="10.3525" rx="4" transform="rotate(-50.12 77.2018 316.948)" fill="#1E2877"/>
<rect x="68.3514" y="327.54" width="23.0048" height="10.3525" rx="4" transform="rotate(-50.12 68.3514 327.54)" fill="#1E2877"/>
<rect x="59.501" y="338.133" width="9.20219" height="10.3525" rx="4" transform="rotate(-50.12 59.501 338.133)" fill="#1E2877"/>
<path d="M218.042 35.6283H290.955L256.159 77.3257L117.79 77.6133H116.839L115.652 77.5409L114.464 77.4685C113.831 77.3721 113.192 77.3238 112.552 77.324L110.89 77.3244C107.489 77.3253 104.107 76.8245 100.852 75.8382L96.2711 74.45L93.5327 72.7648C92.8683 72.356 92.2541 71.8708 91.7026 71.3193L91.0949 70.7116L90.2322 69.2163V68.3476V66.6103V66.0312C90.2322 65.6534 90.3427 65.2838 90.55 64.968L90.7073 64.7282L91.9576 62.3722L94.2582 60.0716L101.16 55.7581L108.924 54.0327L113.525 52.8824L122.152 50.5818L132.217 47.9937L140.844 45.1181L143.145 44.5429L148.609 41.9548L160.686 37.0661L165 35.9159L169.601 35.6283H200.946H209.573H214.716H218.042Z" fill="white"/>
<path d="M90.599 70.1365L90.3114 66.1105H265.441L256.159 77.3257H107.199L102.598 76.463L97.4214 74.7376L93.9706 73.0122L92.0368 71.8619L90.599 70.1365Z" fill="#1E2877"/>
<path d="M153.616 42.6897L161.549 36.7786L146.135 43.3516L138.256 46.2684L130.204 48.5689L121.865 50.5819L132.587 50.1433C136.135 49.9982 139.644 49.3537 143.012 48.2288C146.819 46.9573 150.398 45.0875 153.616 42.6897Z" fill="black" stroke="black" stroke-width="0.5"/>
<g filter="url(#filter2_d_2_2)">
<path d="M167.749 35.6283H207.721H290.955L256.159 77.3257H109.948H107.073H106.497L105.779 77.2538L105.649 77.2409C105.257 77.2016 104.867 77.1339 104.484 77.0381L103.909 76.8944L102.721 76.5463L100.996 75.9711L100.746 75.8879L99.8834 75.6003L99.0207 75.3127L98.5893 75.1689L97.7266 74.8814L96.5763 74.45L95.8574 74.1625L94.7071 73.5873L93.9882 73.156L93.2693 72.7246L92.6942 72.2933L92.119 71.8619L91.8315 71.5743L91.5439 71.2868L91.2563 70.9992C91.0651 70.808 90.8932 70.5983 90.7431 70.3733L90.6812 70.2803L90.6072 70.0954C90.4661 69.7426 90.3936 69.3662 90.3936 68.9862V68.1235V66.3981V65.823C90.3936 65.443 90.4661 65.0666 90.6072 64.7138L90.6812 64.5289C90.8726 64.0504 91.102 63.588 91.3671 63.146L91.8315 62.3722C92.5959 61.4165 93.4639 60.5485 94.4196 59.784L95.5698 58.9213L97.0077 58.0586L98.0142 57.4835L99.0207 56.9084L100.171 56.3332L100.746 56.0456C101.129 55.8542 101.525 55.6901 101.931 55.5547L102.184 55.4705L103.334 55.1829L109.373 53.7451L116.275 52.0197L122.314 50.5819L129.215 48.8564L134.104 47.4186L138.705 45.9808L143.019 44.5429L150.783 41.0921L160.56 37.0661L161.626 36.6663C162.448 36.3582 163.293 36.117 164.154 35.9449C165.206 35.7343 166.277 35.6283 167.351 35.6283H167.749Z" stroke="#1E2877" shape-rendering="crispEdges"/>
</g>
<rect width="9.20219" height="10.3525" rx="4" transform="matrix(-1 0 0 1 174.364 47.131)" fill="#1E2877"/>
<rect width="9.20219" height="10.3525" rx="4" transform="matrix(-1 0 0 1 188.167 47.131)" fill="#1E2877"/>
<rect width="9.20219" height="10.3525" rx="4" transform="matrix(-1 0 0 1 201.395 47.131)" fill="#1E2877"/>
<rect width="9.20219" height="10.3525" rx="4" transform="matrix(-1 0 0 1 215.037 47.131)" fill="#1E2877"/>
<rect width="9.20219" height="10.3525" rx="4" transform="matrix(-1 0 0 1 242.643 47.131)" fill="#1E2877"/>
<rect width="9.20219" height="10.3525" rx="4" transform="matrix(-1 0 0 1 256.447 47.131)" fill="#1E2877"/>
<path d="M702.85 172.55L600.55 165.8H704.05L702.85 172.55ZM705.4 158L641.8 151.25H706.6L705.4 158ZM721.45 100.4L657.85 93.65H721.9L721.45 100.4ZM722.5 86L659.05 79.25H722.95L722.5 86ZM668.65 122.45H733.45L727.75 128.75L668.65 122.45ZM655.6 136.85H720.4L714.7 143.15L655.6 136.85ZM681.55 108.05H746.35L740.65 114.35L681.55 108.05ZM784.3 173H707.5L710.8 154.25L755.95 104.15L755.65 103.25H725.8L727.45 79.25H800.2L796.9 98L752.05 148.1L752.2 149H788.5L784.3 173ZM881.057 140.75H858.707L856.907 150.95H884.657L880.757 173H827.807L841.607 93.65H894.407L887.357 116.15H862.907L861.107 126.35H883.607L881.057 140.75ZM822.857 172.55L759.257 165.8H824.057L822.857 172.55ZM827.957 143.6L764.357 136.85H829.157L827.957 143.6ZM830.507 129.2L766.907 122.45H831.707L830.507 129.2ZM833.057 114.8L769.457 108.05H834.257L833.057 114.8ZM835.607 100.4L772.007 93.65H836.657L835.607 100.4ZM825.407 158L761.807 151.25H826.607L825.407 158ZM972.745 173L957.295 143.3H956.695L951.445 173H926.245L940.045 93.65H960.445L976.045 123.2H976.945L982.045 93.65H1007.09L993.145 173H972.745ZM921.295 172.55L857.695 165.8H922.495L921.295 172.55ZM926.395 143.6L862.795 136.85H927.595L926.395 143.6ZM928.945 129.2L865.345 122.45H930.145L928.945 129.2ZM931.495 114.8L867.895 108.05H932.695L931.495 114.8ZM934.045 100.4L870.445 93.65H935.095L934.045 100.4ZM923.845 158L860.245 151.25H925.045L923.845 158ZM1103.03 79.25C1120.13 79.25 1128.68 86.9 1128.68 102.2C1128.68 108.5 1127.73 114.5 1125.83 120.2C1122.33 131 1116.83 138.2 1109.33 141.8L1119.23 173H1087.88L1080.98 145.1H1074.83L1070.03 173H1041.53L1058.03 79.25H1103.03ZM1085.48 122C1088.88 122 1091.43 121.65 1093.13 120.95C1094.93 120.15 1096.13 118 1096.73 114.5C1097.43 110.9 1097.78 108.7 1097.78 107.9C1097.78 105.9 1096.98 104.65 1095.38 104.15C1093.88 103.55 1091.38 103.25 1087.88 103.25H1082.18L1078.88 122H1085.48ZM1037.03 172.55L973.428 165.8H1038.23L1037.03 172.55ZM1042.13 143.6L978.528 136.85H1043.33L1042.13 143.6ZM1047.08 114.8L983.628 108.05H1048.28L1047.08 114.8ZM1049.63 100.4L986.178 93.65H1050.83L1049.63 100.4ZM1039.58 158L975.978 151.25H1040.78L1039.58 158ZM1052.18 86L988.728 79.25H1053.38L1052.18 86ZM1044.53 129.2L981.078 122.45H1045.73L1044.53 129.2ZM1209.07 173L1208.47 160.85H1189.57L1184.92 173H1158.97L1192.27 93.65H1229.47L1235.32 173H1209.07ZM1208.47 139.4V116.6H1206.37L1197.52 139.4H1208.47ZM1154.17 172.4L1092.67 165.8H1157.02L1154.17 172.4ZM1160.32 157.85L1098.82 151.25H1163.17L1160.32 157.85ZM1166.47 143.45L1104.97 136.85H1169.17L1166.47 143.45ZM1172.47 129.05L1111.12 122.45H1175.32L1172.47 129.05ZM1178.62 114.65L1117.27 108.05H1181.32L1178.62 114.65ZM1184.62 100.1L1123.42 93.65H1187.32L1184.62 100.1ZM1274.44 173L1288.24 93.65H1314.64L1300.69 173H1274.44ZM1269.49 172.55L1205.89 165.8H1270.69L1269.49 172.55ZM1274.59 143.6L1210.99 136.85H1275.79L1274.59 143.6ZM1277.14 129.2L1213.54 122.45H1278.34L1277.14 129.2ZM1279.69 114.8L1216.09 108.05H1280.89L1279.69 114.8ZM1282.24 100.4L1218.64 93.65H1283.29L1282.24 100.4ZM1272.04 158L1208.44 151.25H1273.24L1272.04 158ZM1396.58 173H1347.83L1361.63 93.65H1388.03L1377.98 150.95H1400.48L1396.58 173ZM1342.88 172.55L1279.28 165.8H1344.08L1342.88 172.55ZM1347.98 143.6L1284.38 136.85H1349.18L1347.98 143.6ZM1350.53 129.2L1286.93 122.45H1351.73L1350.53 129.2ZM1353.08 114.8L1289.48 108.05H1354.28L1353.08 114.8ZM1355.63 100.4L1292.03 93.65H1356.68L1355.63 100.4ZM1345.43 158L1281.83 151.25H1346.63L1345.43 158ZM1420.33 172.55L1356.73 165.8H1421.53L1420.33 172.55ZM1435.78 114.8L1372.18 108.05H1436.23L1435.78 114.8ZM1436.83 100.4L1373.23 93.65H1437.28L1436.83 100.4ZM1426.18 151.25L1423.48 154.4L1422.88 157.85L1361.38 151.25H1426.18ZM1452.28 122.45L1446.73 128.75L1387.48 122.45H1452.28ZM1374.58 136.85H1439.38L1433.68 143.15L1374.58 136.85ZM1490.23 173H1424.98L1427.83 156.35L1463.83 116.45L1463.53 115.55H1440.28L1441.78 93.65H1503.58L1500.58 110.3L1464.43 150.65L1464.73 151.55H1493.83L1490.23 173ZM778.3 238.25C785.5 238.25 790.7 239.5 793.9 242C797.2 244.5 798.85 248.35 798.85 253.55C798.85 261.15 797.15 267.4 793.75 272.3C790.45 277.2 786.4 280.25 781.6 281.45L781.45 282.35C790.45 284.05 794.95 290 794.95 300.2C794.95 309.2 792.5 316.75 787.6 322.85C782.7 328.95 775.8 332 766.9 332H715.6L732.1 238.25H778.3ZM761.8 294.65H750.55L747.85 309.95H758.95C761.45 309.95 763.35 308.95 764.65 306.95C765.95 304.95 766.6 302.4 766.6 299.3C766.6 296.2 765 294.65 761.8 294.65ZM766 258.8H757L754.45 272.75H763.3C767.9 272.75 770.2 269.5 770.2 263C770.2 260.2 768.8 258.8 766 258.8ZM711.1 331.55L647.5 324.8H712.3L711.1 331.55ZM716.2 302.6L652.6 295.85H717.4L716.2 302.6ZM718.75 288.2L655.15 281.45H719.95L718.75 288.2ZM721.3 273.8L657.7 267.05H722.5L721.3 273.8ZM723.85 259.4L660.25 252.65H724.9L723.85 259.4ZM713.65 317L650.05 310.25H714.85L713.65 317ZM726.25 245L662.8 238.25H727.45L726.25 245ZM880.062 332L879.462 319.85H860.562L855.912 332H829.962L863.262 252.65H900.462L906.312 332H880.062ZM879.462 298.4V275.6H877.362L868.512 298.4H879.462ZM825.162 331.4L763.662 324.8H828.012L825.162 331.4ZM831.312 316.85L769.812 310.25H834.162L831.312 316.85ZM837.462 302.45L775.962 295.85H840.162L837.462 302.45ZM843.462 288.05L782.112 281.45H846.312L843.462 288.05ZM849.612 273.65L788.262 267.05H852.312L849.612 273.65ZM855.612 259.1L794.412 252.65H858.312L855.612 259.1ZM995.684 330.35C990.284 332.65 982.784 333.8 973.184 333.8C963.584 333.8 956.484 331.8 951.884 327.8C947.384 323.7 945.134 317.3 945.134 308.6C945.134 304.7 945.734 299.3 946.934 292.4C949.434 277.9 953.734 267.4 959.834 260.9C966.034 254.4 975.884 251.15 989.384 251.15C999.084 251.15 1005.73 252.25 1009.33 254.45L1001.68 275.3C996.684 273.9 992.134 273.2 988.034 273.2C983.934 273.2 981.034 273.55 979.334 274.25C977.734 274.95 976.734 276.3 976.334 278.3L970.484 310.4C972.584 310.9 976.184 311.15 981.284 311.15C986.484 311.15 992.084 310.05 998.084 307.85L995.684 330.35ZM941.684 295.85C941.284 298.95 941.034 301.05 940.934 302.15L881.834 295.85H941.684ZM944.534 281.45L943.184 287.75L884.534 281.45H944.534ZM940.784 310.25C940.784 311.85 940.984 313.95 941.384 316.55L882.434 310.25H940.784ZM949.784 267.05C948.584 269.65 947.734 271.65 947.234 273.05L890.534 267.05H949.784ZM943.934 324.8C945.134 327.2 946.434 329.05 947.834 330.35L895.484 324.8H943.934ZM962.834 252.65C960.434 254.05 958.384 255.7 956.684 257.6L910.634 252.65H962.834ZM1076.1 332L1069.05 306.05H1068.15L1063.65 332H1038.45L1052.25 252.65H1077.6L1073.25 276.95H1074L1089.45 252.65H1116.9L1091.7 291.5L1103.55 332H1076.1ZM1033.5 331.55L969.902 324.8H1034.7L1033.5 331.55ZM1038.6 302.6L975.002 295.85H1039.8L1038.6 302.6ZM1041.15 288.2L977.552 281.45H1042.35L1041.15 288.2ZM1043.7 273.8L980.102 267.05H1044.9L1043.7 273.8ZM1046.25 259.4L982.652 252.65H1047.3L1046.25 259.4ZM1036.05 317L972.452 310.25H1037.25L1036.05 317ZM1196.29 299.75H1173.94L1172.14 309.95H1199.89L1195.99 332H1143.04L1156.84 252.65H1209.64L1202.59 275.15H1178.14L1176.34 285.35H1198.84L1196.29 299.75ZM1138.09 331.55L1074.49 324.8H1139.29L1138.09 331.55ZM1143.19 302.6L1079.59 295.85H1144.39L1143.19 302.6ZM1145.74 288.2L1082.14 281.45H1146.94L1145.74 288.2ZM1148.29 273.8L1084.69 267.05H1149.49L1148.29 273.8ZM1150.84 259.4L1087.24 252.65H1151.89L1150.84 259.4ZM1140.64 317L1077.04 310.25H1141.84L1140.64 317ZM1287.98 332L1272.53 302.3H1271.93L1266.68 332H1241.48L1255.28 252.65H1275.68L1291.28 282.2H1292.18L1297.28 252.65H1322.33L1308.38 332H1287.98ZM1236.53 331.55L1172.93 324.8H1237.73L1236.53 331.55ZM1241.63 302.6L1178.03 295.85H1242.83L1241.63 302.6ZM1244.18 288.2L1180.58 281.45H1245.38L1244.18 288.2ZM1246.73 273.8L1183.13 267.05H1247.93L1246.73 273.8ZM1249.28 259.4L1185.68 252.65H1250.33L1249.28 259.4ZM1239.08 317L1175.48 310.25H1240.28L1239.08 317ZM1404.31 252.65C1415.21 252.65 1423.01 254.6 1427.71 258.5C1432.41 262.4 1434.76 268.65 1434.76 277.25C1434.76 281.35 1434.21 286.4 1433.11 292.4C1430.61 306.6 1426.26 316.75 1420.06 322.85C1413.96 328.95 1404.06 332 1390.36 332H1356.76L1370.56 252.65H1404.31ZM1400.71 274.55H1392.01L1385.71 310.55H1394.41C1397.31 310.55 1399.51 310.2 1401.01 309.5C1402.61 308.7 1403.61 307.15 1404.01 304.85L1408.36 280.1C1408.46 279.7 1408.51 278.9 1408.51 277.7C1408.51 275.6 1405.91 274.55 1400.71 274.55ZM1351.81 331.55L1288.21 324.8H1353.01L1351.81 331.55ZM1356.91 302.6L1293.31 295.85H1358.11L1356.91 302.6ZM1359.46 288.2L1295.86 281.45H1360.66L1359.46 288.2ZM1362.01 273.8L1298.41 267.05H1363.21L1362.01 273.8ZM1364.56 259.4L1300.96 252.65H1365.61L1364.56 259.4ZM1354.36 317L1290.76 310.25H1355.56L1354.36 317Z" fill="black"/>
<defs>
<filter id="filter0_d_2_2" x="88.6146" y="315.22" width="501.724" height="50.6974" filterUnits="userSpaceOnUse" color-interpolation-filters="sRGB">
<feFlood flood-opacity="0" result="BackgroundImageFix"/>
<feColorMatrix in="SourceAlpha" type="matrix" values="0 0 0 0 0 0 0 0 0 0 0 0 0 0 0 0 0 0 127 0" result="hardAlpha"/>
<feOffset dy="4"/>
<feGaussianBlur stdDeviation="2"/>
<feComposite in2="hardAlpha" operator="out"/>
<feColorMatrix type="matrix" values="0 0 0 0 0 0 0 0 0 0 0 0 0 0 0 0 0 0 0.25 0"/>
<feBlend mode="normal" in2="BackgroundImageFix" result="effect1_dropShadow_2_2"/>
<feBlend mode="normal" in="SourceGraphic" in2="effect1_dropShadow_2_2" result="shape"/>
</filter>
<filter id="filter1_d_2_2" x="47.7117" y="35.1548" width="282.539" height="331.05" filterUnits="userSpaceOnUse" color-interpolation-filters="sRGB">
<feFlood flood-opacity="0" result="BackgroundImageFix"/>
<feColorMatrix in="SourceAlpha" type="matrix" values="0 0 0 0 0 0 0 0 0 0 0 0 0 0 0 0 0 0 127 0" result="hardAlpha"/>
<feOffset dy="4"/>
<feGaussianBlur stdDeviation="2"/>
<feComposite in2="hardAlpha" operator="out"/>
<feColorMatrix type="matrix" values="0 0 0 0 0 0 0 0 0 0 0 0 0 0 0 0 0 0 0.25 0"/>
<feBlend mode="normal" in2="BackgroundImageFix" result="effect1_dropShadow_2_2"/>
<feBlend mode="normal" in="SourceGraphic" in2="effect1_dropShadow_2_2" result="shape"/>
</filter>
<filter id="filter2_d_2_2" x="85.8936" y="35.1283" width="210.13" height="50.6974" filterUnits="userSpaceOnUse" color-interpolation-filters="sRGB">
<feFlood flood-opacity="0" result="BackgroundImageFix"/>
<feColorMatrix in="SourceAlpha" type="matrix" values="0 0 0 0 0 0 0 0 0 0 0 0 0 0 0 0 0 0 127 0" result="hardAlpha"/>
<feOffset dy="4"/>
<feGaussianBlur stdDeviation="2"/>
<feComposite in2="hardAlpha" operator="out"/>
<feColorMatrix type="matrix" values="0 0 0 0 0 0 0 0 0 0 0 0 0 0 0 0 0 0 0.25 0"/>
<feBlend mode="normal" in2="BackgroundImageFix" result="effect1_dropShadow_2_2"/>
<feBlend mode="normal" in="SourceGraphic" in2="effect1_dropShadow_2_2" result="shape"/>
</filter>
</defs>
</svg>
